<?xml version="1.0" encoding="UTF-8" standalone="no"?>
<svg
   xmlns:dc="http://purl.org/dc/elements/1.1/"
   xmlns:cc="http://creativecommons.org/ns#"
   xmlns:rdf="http://www.w3.org/1999/02/22-rdf-syntax-ns#"
   xmlns:svg="http://www.w3.org/2000/svg"
   xmlns="http://www.w3.org/2000/svg"
   viewBox="0 0 153.60001 96"
   height="96"
   width="153.60001"
   xml:space="preserve"
   id="svg2"
   version="1.1"><metadata
     id="metadata8"><rdf:RDF><cc:Work
         rdf:about=""><dc:format>image/svg+xml</dc:format><dc:type
           rdf:resource="http://purl.org/dc/dcmitype/StillImage" /></cc:Work></rdf:RDF></metadata><defs
     id="defs6" /><g
     transform="matrix(1.3333333,0,0,-1.3333333,0,96)"
     id="g10"><g
       transform="scale(0.1)"
       id="g12"><path
         id="path14"
         style="fill:#627db9;fill-opacity:1;fill-rule:nonzero;stroke:none"
         d="M 438.336,281.855 H 339.34 c 60.5,40.352 112.238,108.473 42.461,149.399 C 446.371,363.359 337.66,302.09 262.379,281.855 H 222.73 v 178.051 c 26.524,4.172 57.508,4.903 94.551,0.403 -28.047,8.222 -60.832,13.964 -94.551,17.05 v 20.098 H 387.875 C 327.66,457.066 276.547,389.254 346.078,348.496 c -56.629,59.547 21.75,113.988 92.258,140.121 v -206.762 0" /><path
         id="path16"
         style="fill:#174e94;fill-opacity:1;fill-rule:nonzero;stroke:none"
         d="m 871.316,364.082 c 0,-27.148 0,-49.258 -1.406,-61.016 -0.84,-8.105 -2.519,-12.871 -8.105,-14.003 -2.52,-0.547 -5.879,-1.114 -10.094,-1.114 -3.344,0 -4.477,-0.84 -4.477,-2.246 0,-1.953 1.977,-2.793 5.606,-2.793 11.191,0 28.848,0.84 35.293,0.84 7.539,0 25.195,-0.84 43.672,-0.84 3.066,0 5.312,0.84 5.312,2.793 0,1.406 -1.406,2.246 -4.492,2.246 -4.199,0 -10.352,0.567 -14.258,1.114 -8.418,1.132 -10.371,6.171 -11.211,13.73 -1.113,12.031 -1.113,34.141 -1.113,61.289 v 49.273 c 0,42.559 0,50.399 0.547,59.356 0.566,9.805 2.793,14.559 10.371,15.957 3.359,0.555 5.586,0.859 8.398,0.859 2.793,0 4.477,0.547 4.477,2.782 0,1.679 -2.25,2.246 -5.883,2.246 -10.625,0 -27.148,-0.84 -34.16,-0.84 -8.105,0 -25.762,0.84 -36.387,0.84 -4.488,0 -6.718,-0.567 -6.718,-2.246 0,-2.235 1.679,-2.782 4.492,-2.782 3.363,0 6.992,-0.304 10.078,-1.132 6.133,-1.399 8.945,-6.165 9.512,-15.684 0.546,-8.957 0.546,-16.797 0.546,-59.356 v -49.273 0" /><path
         id="path18"
         style="fill:#174e94;fill-opacity:1;fill-rule:nonzero;stroke:none"
         d="m 223.676,214.746 v 0.508 c 1.543,0 2.461,1.269 2.461,3.965 v 29.433 c 0,2.774 -1.016,3.965 -2.461,3.965 v 0.488 h 11.828 v -0.488 c -1.906,0 -2.629,-1.406 -2.629,-4.121 v -29.141 c 0,-3.496 1.035,-4.101 2.629,-4.101 v -0.508 h -11.828 v 0" /><path
         id="path20"
         style="fill:#174e94;fill-opacity:1;fill-rule:nonzero;stroke:none"
         d="m 297.418,248.75 v -35.82 l -27.746,33.984 v -27.812 c 0,-2.364 1.074,-3.848 2.715,-3.848 v -0.508 h -8.582 v 0.508 c 1.804,0.41 2.625,0.762 2.625,3.75 v 29.336 c 0,3.125 -1.133,4.277 -2.567,4.277 v 0.488 h 9.403 l 20.859,-25.722 v 21.172 c 0,3.027 -1.074,4.062 -2.715,4.062 v 0.488 h 8.418 v -0.488 c -1.894,-0.429 -2.41,-1.191 -2.41,-3.867 v 0" /><path
         id="path22"
         style="fill:#174e94;fill-opacity:1;fill-rule:nonzero;stroke:none"
         d="m 358.871,247.734 -0.508,0.039 c -0.203,1.641 -0.566,2.207 -7.605,2.207 h -3.906 v -30.625 c 0,-3.242 1.23,-4.003 2.675,-4.101 v -0.508 h -12.031 v 0.508 c 1.953,0 2.617,1.269 2.617,3.965 v 30.761 h -4.875 c -5.547,0 -6.785,-0.449 -6.836,-2.05 l -0.515,-0.157 -1.231,5.332 h 33.457 l -1.242,-5.371 v 0" /><path
         id="path24"
         style="fill:#174e94;fill-opacity:1;fill-rule:nonzero;stroke:none"
         d="m 411.391,214.746 h -23.946 v 0.508 c 1.594,0 2.414,1.23 2.414,3.965 v 29.687 c 0,2.871 -1.281,3.711 -2.726,3.711 v 0.488 h 23.789 l -0.762,-5.273 -0.566,0.059 c 0.051,1.797 -0.926,2.148 -6.582,2.148 h -6.367 v -14.297 h 6.007 c 7.098,0 6.629,0.684 7.149,2.129 h 0.515 v -7.519 h -0.515 c -0.41,1.757 -1.446,2.304 -7.199,2.304 h -5.957 v -11.758 c 0,-2.773 0.82,-3.085 3.546,-3.085 h 5.848 c 3.301,0 6.477,1.132 7.453,3.085 l 0.516,-0.253 -2.617,-5.899 v 0" /><path
         id="path26"
         style="fill:#174e94;fill-opacity:1;fill-rule:nonzero;stroke:none"
         d="m 460.719,242.539 c 0,-4.668 -2.93,-8.125 -9.348,-8.125 h -0.984 v 15.977 h 2.41 c 4.687,0 7.922,-3.125 7.922,-7.852 z m 13.164,-27.793 v 0.547 c -0.832,0.117 -2.07,0.781 -3.606,3.047 l -10.125,14.902 c 3.133,0.918 7.403,4.453 7.403,9.551 0,11.523 -13.41,10.312 -15.364,10.312 h -11.16 v -0.488 c 1.856,0 2.676,-1.601 2.676,-3.965 v -29.433 c 0,-3.145 -1.027,-3.77 -2.617,-3.965 v -0.508 h 11.922 v 0.508 c -1.59,0.41 -2.625,0.566 -2.625,4.101 v 12.286 c 1.179,0 2.215,-0.059 3.34,0.097 l 10.996,-16.992 h 9.16 v 0" /><path
         id="path28"
         style="fill:#174e94;fill-opacity:1;fill-rule:nonzero;stroke:none"
         d="m 533.375,248.75 v -35.82 l -27.734,33.984 v -27.812 c 0,-2.364 1.074,-3.848 2.714,-3.848 v -0.508 h -8.574 v 0.508 c 1.797,0.41 2.617,0.762 2.617,3.75 v 29.336 c 0,3.125 -1.132,4.277 -2.558,4.277 v 0.488 h 9.394 l 20.86,-25.722 v 21.172 c 0,3.027 -1.074,4.062 -2.715,4.062 v 0.488 h 8.418 v -0.488 c -1.895,-0.429 -2.422,-1.191 -2.422,-3.867 v 0" /><path
         id="path30"
         style="fill:#174e94;fill-opacity:1;fill-rule:nonzero;stroke:none"
         d="m 583.531,230.664 h -11.465 l 5.664,15.684 5.801,-15.684 z m 14.688,-15.918 v 0.508 c -1.426,0 -2.207,1.172 -2.774,2.715 l -13.359,35.136 h -7.246 v -0.488 c 0.351,0 2.168,-0.371 1.289,-2.734 l -11.934,-32.168 c -0.488,-1.445 -1.582,-2.461 -2.715,-2.461 v -0.508 h 7.208 v 0.508 c -1.192,0 -1.7,1.269 -1.231,2.559 l 3.594,9.98 h 13.496 l 3.555,-9.824 c 0.527,-1.446 0.312,-2.715 -1.446,-2.715 v -0.508 h 11.563 v 0" /><path
         id="path32"
         style="fill:#174e94;fill-opacity:1;fill-rule:nonzero;stroke:none"
         d="m 649.188,247.734 -0.528,0.039 c -0.195,1.641 -0.566,2.207 -7.597,2.207 h -3.907 v -30.625 c 0,-3.242 1.231,-4.003 2.68,-4.101 v -0.508 h -12.027 v 0.508 c 1.953,0 2.617,1.269 2.617,3.965 v 30.761 h -4.883 c -5.547,0 -6.777,-0.449 -6.816,-2.05 l -0.528,-0.157 -1.23,5.332 h 33.429 l -1.21,-5.371 v 0" /><path
         id="path34"
         style="fill:#174e94;fill-opacity:1;fill-rule:nonzero;stroke:none"
         d="m 677.488,214.746 v 0.508 c 1.543,0 2.481,1.269 2.481,3.965 v 29.433 c 0,2.774 -1.035,3.965 -2.481,3.965 v 0.488 h 11.817 v -0.488 c -1.895,0 -2.617,-1.406 -2.617,-4.121 v -29.141 c 0,-3.496 1.035,-4.101 2.617,-4.101 v -0.508 h -11.817 v 0" /><path
         id="path36"
         style="fill:#174e94;fill-opacity:1;fill-rule:nonzero;stroke:none"
         d="m 751.375,234.16 c 0,-13.926 -8.477,-17.168 -13.082,-17.168 -9.613,0 -13.266,9.102 -13.266,16.699 0,12.032 5.801,16.954 13.301,16.954 8.789,0 13.047,-8.165 13.047,-16.485 z m 7.051,-0.351 c 0,10.742 -7.965,20.078 -19.942,20.078 -14.336,0 -20.546,-9.961 -20.546,-19.942 0,-10.019 6.718,-19.98 20.136,-19.98 13.614,0 20.352,9.707 20.352,19.844 v 0" /><path
         id="path38"
         style="fill:#174e94;fill-opacity:1;fill-rule:nonzero;stroke:none"
         d="m 820.77,248.75 v -35.82 l -27.754,33.984 v -27.812 c 0,-2.364 1.074,-3.848 2.714,-3.848 v -0.508 h -8.574 v 0.508 c 1.797,0.41 2.617,0.762 2.617,3.75 v 29.336 c 0,3.125 -1.132,4.277 -2.578,4.277 v 0.488 h 9.414 l 20.86,-25.722 v 21.172 c 0,3.027 -1.074,4.062 -2.715,4.062 v 0.488 h 8.418 v -0.488 c -1.914,-0.429 -2.402,-1.191 -2.402,-3.867 v 0" /><path
         id="path40"
         style="fill:#174e94;fill-opacity:1;fill-rule:nonzero;stroke:none"
         d="m 870.906,230.664 h -11.465 l 5.645,15.684 5.82,-15.684 z m 14.688,-15.918 v 0.508 c -1.446,0 -2.207,1.172 -2.774,2.715 l -13.359,35.136 h -7.246 v -0.488 c 0.371,0 2.148,-0.371 1.289,-2.734 L 851.57,217.715 c -0.507,-1.445 -1.582,-2.461 -2.715,-2.461 v -0.508 h 7.188 v 0.508 c -1.172,0 -1.699,1.269 -1.23,2.559 l 3.593,9.98 h 13.516 l 3.555,-9.824 c 0.507,-1.446 0.316,-2.715 -1.446,-2.715 v -0.508 h 11.563 v 0" /><path
         id="path42"
         style="fill:#174e94;fill-opacity:1;fill-rule:nonzero;stroke:none"
         d="m 935.906,214.746 h -23.789 v 0.508 c 1.485,0.098 2.426,1.23 2.426,3.965 v 29.433 c 0,2.52 -1.039,3.965 -2.738,3.965 v 0.488 h 11.972 v -0.488 c -0.879,0 -2.422,-0.469 -2.422,-3.867 v -28.516 c 0,-2.05 0.981,-2.519 2.989,-2.519 h 4.199 c 4.434,0 8.027,0.781 9.418,3.183 l 0.504,-0.253 -2.559,-5.899 v 0" /><path
         id="path44"
         style="fill:#174e94;fill-opacity:1;fill-rule:nonzero;stroke:none"
         d="m 480.523,365.195 c 0.02,-26.035 0.02,-48.379 -1.406,-60.254 -1.113,-8.203 -2.539,-14.433 -8.215,-15.566 -2.539,-0.566 -5.937,-1.133 -10.175,-1.133 -3.399,0 -4.52,-0.84 -4.52,-2.246 0,-1.992 1.973,-2.832 5.645,-2.832 11.328,0 29.14,0.84 34.531,0.84 4.238,0 25.156,-0.84 41.562,-0.84 3.672,0 5.664,0.84 5.645,2.832 0,1.406 -1.113,2.246 -3.379,2.246 -3.398,0 -9.609,0.567 -13.848,1.133 -8.496,1.133 -10.195,7.363 -11.054,15.566 -1.387,11.875 -1.387,34.219 -1.407,60.528 V 469.41 c 0,0.02 -0.058,4.481 -0.058,5.86 0,5.996 0,6.921 4.59,7.703 5.527,0.949 13.711,0.968 19.082,0.312 6.367,-0.789 12.597,-3.652 17.422,-7.012 4.531,-3.164 14.609,-10.644 18.32,-29.589 3.926,-20.125 -0.215,-41.61 -11.172,-53.7 -4.922,-5.429 -10.02,-9.531 -16.25,-12.675 -9.629,-4.883 -15.606,-5.973 -18.633,-7.184 -2.402,-0.957 -5.781,-2.168 -6.855,-2.793 -1.856,-1.074 -1.66,-1.68 1.562,-1.543 4.981,0.215 17.403,1.875 19.082,2.149 1.504,0.214 3.457,-0.098 4.863,-1.797 3.692,-4.239 16.7,-23.477 28.008,-39.024 15.84,-21.777 26.602,-35.078 38.75,-41.582 7.344,-3.965 14.414,-5.371 30.246,-5.371 h 26.875 c 3.399,0 5.371,0.566 5.371,2.832 0,1.406 -1.132,2.246 -3.394,2.246 -2.25,0 -4.809,0.293 -7.914,0.86 -4.238,0.859 -15.836,2.832 -31.672,19.238 -16.699,17.539 -36.191,42.695 -61.367,74.371 28.144,19.687 37.324,42.422 37.324,63.367 0,18.945 -11.309,33.371 -19.219,38.742 -15.293,10.469 -34.238,12.168 -52.05,12.168 -8.77,0 -30.274,-0.851 -39.883,-0.851 -5.938,0 -23.762,0.851 -38.75,0.851 -4.25,0 -6.223,-0.566 -6.223,-2.55 0,-1.973 1.699,-2.54 4.797,-2.54 3.965,0 8.777,-0.281 11.043,-0.847 9.328,-1.985 11.594,-6.504 12.16,-16.125 0.566,-9.051 0.566,-16.973 0.566,-59.969 v -49.762 0" /><path
         id="path46"
         style="fill:#174e94;fill-opacity:1;fill-rule:nonzero;stroke:none"
         d="m 780.984,493.676 c 10.996,0.09 19.883,0.566 27.989,1.406 7.011,0.559 14.57,1.672 15.39,-1.961 0.567,-2.246 5.879,-27.715 5.879,-32.199 0,-3.086 -0.547,-4.481 -2.519,-4.481 -1.68,0 -2.5,1.133 -3.086,3.368 -0.547,2.238 -1.953,5.597 -4.746,9.796 -4.2,6.161 -10.547,7.54 -27.149,8.114 -16.601,0.586 -45.273,1.367 -45.273,1.367 l 1.074,-115.004 c 0,-25.742 0,-47.871 1.406,-59.902 0.86,-7.832 2.52,-13.985 10.918,-15.117 3.926,-0.547 10.078,-1.114 14.278,-1.114 3.105,0 4.472,-0.84 4.472,-2.246 0,-1.953 -2.246,-2.793 -5.332,-2.793 -18.457,0 -36.094,0.84 -43.926,0.84 -6.425,0 -24.082,-0.84 -35.273,-0.84 -3.633,0 -5.606,0.84 -5.606,2.793 0,1.406 1.133,2.246 4.493,2.246 4.199,0 7.558,0.567 10.078,1.114 5.586,1.132 7.265,7.285 8.105,15.39 1.407,11.758 1.407,33.887 1.407,59.629 v 114.789 l -41.719,-1.113 c -16.231,-0.567 -22.949,-1.973 -27.149,-8.125 -2.793,-4.199 -4.195,-7.559 -4.746,-9.793 -0.586,-2.238 -1.406,-3.371 -3.086,-3.371 -1.965,0 -2.511,1.406 -2.511,4.492 0,4.473 5.304,29.953 5.871,32.187 0.82,3.645 8.379,2.532 15.39,1.954 8.106,-0.829 18.75,-1.387 28.008,-1.387 0,0 86.348,-0.117 97.363,-0.039 v 0" /></g></g></svg>